<svg xmlns="http://www.w3.org/2000/svg" width="143" height="22"><path d="M47.117 3.522v2.013h1.452v.834h-.367v2.414h2.444V6.724h.063c1.243.013 2.329.233 3.259.661v-.85h2.503v2.484h-.393l.021.026c1.206 1.48 1.809 3.339 1.809 5.574 0 .463-.01.81-.027 1.04h-.975v-2.202h-2.618v2.203h-6.102c.31 1.198.985 1.943 2.023 2.234v1.393h1.958v-1.346c.828-.184 1.617-.642 2.366-1.374l1.971 1.626h1.311v2.54h-2.542c-1.205.725-2.612 1.088-4.221 1.088-1.4 0-2.64-.26-3.725-.78v-2.33h-2.76c-.855-1.214-1.282-2.676-1.282-4.385v-.053c0-1.378.286-2.613.86-3.705h-.693V7.893h2.214V5.755h-.799V3.522h2.25ZM23.262 7.223v1.843h1.63v2.028h1.306v.507h1.037v2.079h-1.037v7.973H24.67v-1.84h-1.99v1.84h-1.572v-2.038H20v-2.388h1.11v-3.232h1.938v-2.564H21.11V7.223h2.153Zm8.449-2.129v2.129h1.745l.47.777h-.454v2.305h1.845l.282.466 2.142-3.548h2.02v1.095h1.253V7.223h2.11l-4.767 7.122 1.11 1.664h-.063v3.042h2.091l1.736 2.602h-5.463l-2.25-3.707-2.276 3.707h-5.357l2.601-3.886h2.957v-2.346h2.242v-2.417H33.27v1.69h-.725l.216-.322-.404-.603h-1.891v-2.178h.43l-2.93-4.368h1.126V5.094h2.62Zm29.62-3.458v1.831h2.389v-1.83h1.553V12.43h.709v1.633h-.71v3.922h-1.736v2.054h1.736v1.613h-5.088V17.19h-.534v-2.053h.534v-4.828h-1.278V8.29h1.09v1.33h3.052V6.589h-2.864V1.636h1.147Zm-45.686-.19v2.37l-2.087-.001v1.927h3.905v-.584c1.092 1.119 1.638 2.58 1.638 4.386v.053c0 2.118-.73 3.764-2.192 4.936v3.279h-3.807v-1.655a12.51 12.51 0 0 1-2.063.161h-.041v-1.395H9.152v1.34H6.306v2.467h2.162v2.923H3.273V10.111h1.626v1.795h2.307V9.581H5.795V7.02H3.273V5.806H1.726V3.892H0v-2.26h2.243v1.74h1.03v-.39h5.814V4.66h2.832V2.995c.473.02.925.066 1.357.136V1.446h2.369Zm47.51 13.815h-1.637v1.628h1.637V15.26Zm-21.898-.938v1.513H39.74v-1.513h1.516Zm9.366-3.865c-.66 0-1.21.236-1.647.707a3.16 3.16 0 0 0-.603.963h-.628v1.944h1.967v-1h3.429c-.09-.8-.358-1.436-.804-1.907-.446-.471-1.018-.707-1.714-.707ZM10.906 7.33H8.468v4.934h2.464c.087 0 .173-.002.256-.006v.713h2.022v.916h1.81v-1.824h-1.416v-1.03c.2-.34.301-.739.301-1.196v-.053c0-.8-.263-1.41-.79-1.828-.527-.417-1.263-.626-2.21-.626Zm15.292-.107v1.138h-.94V7.223h.94Zm-2.147-5.22v2.156h2.254v1.578h-5.303V2.003h3.049Zm28.057 1.082v2.234h-2.25V3.085h2.25Zm-19.131-.176v1.817h-1.821V2.909h1.82ZM27.428.9v2.215h-.981V1.772h-1.254V.9h2.235ZM7.248 0v2.607H4.662v-.766h-1.14V.346h1.14V0H7.25Zm68.197 21.663L67.967 1.43h2.203l6.318 17.544L82.806 1.43h2.202l-7.477 20.232h-2.086Zm13.894-17.85a1.281 1.281 0 0 1-.956.408 1.28 1.28 0 0 1-.956-.407 1.368 1.368 0 0 1-.394-.988c0-.388.131-.717.394-.988a1.28 1.28 0 0 1 .956-.407c.375 0 .694.135.956.407.262.271.394.6.394.988 0 .387-.132.717-.394.988Zm-1.884 17.85V7.133h1.856v14.53h-1.856Zm7.513-10.696c0 .656.29 1.178.867 1.564.577.386 1.28.685 2.107.898.834.214 1.662.45 2.483.709.828.26 1.53.695 2.108 1.303.577.608.866 1.405.866 2.389 0 1.236-.486 2.24-1.458 3.012-.972.772-2.228 1.158-3.768 1.158-1.386 0-2.565-.309-3.537-.927-.972-.617-1.65-1.419-2.035-2.403l1.617-.956a3.39 3.39 0 0 0 1.458 1.781c.702.434 1.535.652 2.497.652.943 0 1.733-.189 2.368-.565.635-.376.953-.96.953-1.752 0-.656-.29-1.178-.867-1.564-.577-.386-1.28-.685-2.107-.897a47.91 47.91 0 0 1-2.483-.71 4.87 4.87 0 0 1-2.108-1.303c-.577-.608-.866-1.404-.866-2.389 0-1.178.467-2.162 1.4-2.954.934-.791 2.113-1.187 3.537-1.187 1.174 0 2.204.266 3.09.796a4.876 4.876 0 0 1 1.963 2.158l-1.588.926C100.907 9.355 99.752 8.68 98 8.68c-.828 0-1.54.198-2.137.594-.596.396-.895.96-.895 1.694Zm13.268-7.153a1.282 1.282 0 0 1-.956.407 1.28 1.28 0 0 1-.956-.407 1.368 1.368 0 0 1-.394-.988c0-.388.131-.717.394-.988a1.28 1.28 0 0 1 .956-.407c.375 0 .693.135.956.407.262.271.393.6.393.988 0 .387-.13.717-.393.988Zm-1.884 17.849V7.133h1.856v14.53h-1.856Zm18.108-1.835c-1.463 1.448-3.253 2.172-5.37 2.172s-3.911-.729-5.384-2.186c-1.472-1.458-2.208-3.258-2.208-5.401s.736-3.943 2.208-5.4c1.473-1.458 3.267-2.187 5.384-2.187 2.117 0 3.912.729 5.384 2.186 1.473 1.458 2.209 3.258 2.209 5.401s-.741 3.948-2.223 5.415Zm-9.411-1.332c1.097 1.1 2.444 1.65 4.041 1.65 1.598 0 2.945-.554 4.042-1.664 1.097-1.11 1.646-2.467 1.646-4.069 0-1.602-.549-2.958-1.646-4.069-1.097-1.11-2.444-1.665-4.042-1.665-1.597 0-2.944.555-4.041 1.665-1.097 1.11-1.646 2.467-1.646 4.069 0 1.602.549 2.963 1.646 4.083Zm21.634-11.67c1.761 0 3.15.536 4.167 1.608 1.016 1.073 1.524 2.517 1.524 4.332v8.897h-1.916v-8.896c0-1.295-.344-2.3-1.031-3.014-.687-.715-1.66-1.072-2.918-1.072-1.394 0-2.526.44-3.398 1.318-.87.88-1.306 2.236-1.306 4.072v7.592h-1.916V7.173h1.916v2.261c1.084-1.738 2.71-2.608 4.878-2.608Z"/></svg>