<svg xmlns="http://www.w3.org/2000/svg" width="816" height="126"><path d="M285.444 23.063v10.982h-9.95v4.393h4.423v1.43a40.848 40.848 0 0 1 3.316-.864v-2.763h6.632v1.845a51.583 51.583 0 0 1 3.382-.11c13.721 0 24.192 4.306 31.414 12.916 7.221 8.61 10.832 19.475 10.832 32.595 0 2.665-.051 4.664-.155 5.996H309.76l.001-8.214h-11.053l-.001 8.214H279.32c2.373 9.123 8.408 13.684 18.106 13.684 6.602 0 12.792-2.818 18.57-8.456l3.712 3.056.001-1.123h4.421v4.393l-.451-.001 8.564 7.051a49.007 49.007 0 0 1-3.691 4.143v7.477h-8.843v-.647c-6.839 3.96-14.782 5.94-23.831 5.94-11.08 0-20.453-2.815-28.12-8.444v-8.93h2.211v-5.491h-5.527v-1.098h-3.316v3.294h3.316v2.196h-6.411C253.345 99.635 251 91.39 251 81.797v-.308c0-11.94 3.744-22.021 11.23-30.243v-5.12h5.544a38.78 38.78 0 0 1 3.298-2.271v-2.122h-6.63V30.75h9.947v-7.687h11.054Zm97.269 88.956v8.786l-4.665-.001v2.197h-29.401l-.001-28.554h-3.514v-8.785l2.057-.001v1.177h6.725v3.319h4.482v-4.425h-2.24l-.001-7.744-7.509-.001v-14.29h-1.304l.001-8.785h-4.422v-6.59l3.147-.001v2.01h5.604v-5.532h-4.33v-3.066l1.304-.001v-30.97h14.232v6.38h6.726v2.213h3.361v-3.319h-2.24l-.002-5.274h7.325v7.907h5.77v8.787h-2.21v3.294h-3.56v50.518h2.454v4.394l-2.454-.001v17.771h-8.445v8.85l7.846.002-.001 3.318h4.483l-.001-3.584.783.001ZM182.648 30.75l-.001 9.071h11.563l12.38 20.45 12.38-20.45h31.103l-27.545 41.052 3.227 4.827v-2.235h3.316v-7.687h8.844v8.785h-7.739l.001 3.295h-2.979l2.936 4.392h-3.273v6.59h-2.21v4.393h4.42v-3.295h5.528l-.001-2.196h7.738v8.786l-2.211-.001v-2.196h-4.421v4.393h4.421v-1.53l10.567 15.807h-31.568l-12.999-21.371L192.972 123h-30.95l23.58-35.143h6.994v-5.491h9.948v-9.884h-7.738v-1.098h-5.526v5.49h3.316v3.295h-2.986l-2.953-4.393h-6.22v-6.589h1.79l-19.74-29.366 8.002-.001v-9.07h12.159Zm-43.108 9.071v4.108h4.42l.001 7.688 8.312-.001v12.081h2.742v8.785h4.421v6.59h-6.632V74.68h-.531v5.491h1.636v5.492l-1.636-.001v37.34h-29.401l-.001-10.983 4.51.001v-5.491h-5.526l-.001 4.392h-5.526v-8.785l6.543-.001v-1.098h-2.122v-4.392l2.122-.001V81.268h4.51v-8.785l-4.51-.001v-32.66l16.669-.001ZM32.947 2.391l-.001 7.737h14.278l-.001 5.247h19.012c13.824 0 24.785 3.357 32.883 10.07 8.099 6.715 12.148 15.965 12.148 27.753v.308c0 12.3-4.282 21.832-12.844 28.597-3.157 2.494-6.678 4.528-10.563 6.103l-.001 7.032h-12.08v-3.786c-3.486.533-7.183.799-11.09.799l-2.522-.001.001-5.49H54.43l-.001 5.49h-4.598v2.197h-2.033v3.295h2.033v5.233h3.982v9.948h-3.982v10.078h-30.02l-.001-75.778h5.88l.001 3.295h4.421v-4.393h-2.21v-7.687l-8.092-.001v-9.519h-8.828V17.865h7.687v-4.421h3.296V9.022h-6.59V2.39h17.572Zm88.908 110.726v3.295h-3.316v-3.295h3.316Zm213.329-2.196v4.393h-4.422v-4.393h4.422Zm-60.794 1.098h-3.316v3.295h3.316v-3.295ZM61.5 93.349v5.205h-5.49l-.001-5.205H61.5Zm231.902-33.847c-3.817 0-6.99 1.358-9.517 4.074-2.527 2.717-4.204 6.38-5.029 10.993h13.219v2.307h3.317V73.58h-1.106v-2.196h5.527v3.184h8.135c-.516-4.612-2.063-8.276-4.642-10.993-2.58-2.716-5.88-4.074-9.904-4.074ZM63.913 40.437H49.831V68.88l13.441-.001v4.701h8.842v3.295h5.528v-5.491l-3.317-.001V66.63a14.718 14.718 0 0 0 2.278-1.517c3.095-2.511 4.642-5.92 4.642-10.225v-.307c0-4.613-1.522-8.123-4.565-10.532-3.043-2.409-7.299-3.613-12.767-3.613Zm133.104 24.358h-3.316v3.295h3.316v-3.295Zm-44.743-24.973-.001 3.008h-7.207v-3.01h7.208Zm231.544-7.973v3.294h-3.316V31.85h3.316ZM155.015 0v7.687h1.105v4.393h-3.228v20.208h-30.64V18.669h2.918v3.296h6.633v-6.59h-5.527v-1.098h-4.421l-.001 1.098h-2.21V6.59h8.843l-.001 4.173h23.212V8.785h-5.526V0h8.843Zm30.949 24.161v5.491h-5.527v-5.491h5.527ZM10.982 6.811v11.054H0V6.812h10.982Zm16.474 6.633-.001 1.931h4.393v-1.93l-4.392-.001Zm414.166 110.67L399.818 11h12.315l35.322 98.087L482.778 11h12.315l-41.805 113.115h-11.666Zm77.682-99.791c-1.467 1.516-3.249 2.275-5.345 2.275-2.097 0-3.878-.759-5.346-2.275-1.467-1.516-2.2-3.358-2.2-5.524 0-2.167.733-4.008 2.2-5.524 1.468-1.517 3.25-2.275 5.346-2.275s3.878.758 5.345 2.275c1.468 1.516 2.201 3.357 2.201 5.524 0 2.166-.733 4.008-2.2 5.524Zm-10.533 99.792V42.877h10.376v81.238H508.77Zm42.007-59.8c0 3.67 1.614 6.585 4.843 8.743 3.228 2.16 7.156 3.832 11.784 5.02a267.855 267.855 0 0 1 13.882 3.966c4.627 1.457 8.555 3.886 11.784 7.285 3.228 3.4 4.842 7.853 4.842 13.357 0 6.908-2.717 12.52-8.151 16.838-5.435 4.317-12.457 6.476-21.066 6.476-7.748 0-14.34-1.727-19.774-5.18-5.435-3.455-9.228-7.934-11.38-13.439l9.04-5.342c1.506 4.21 4.223 7.528 8.151 9.957 3.928 2.428 8.582 3.642 13.963 3.642 5.273 0 9.685-1.052 13.237-3.157 3.55-2.104 5.327-5.37 5.327-9.795 0-3.67-1.615-6.584-4.843-8.742-3.229-2.16-7.157-3.832-11.784-5.02a267.856 267.856 0 0 1-13.882-3.966c-4.628-1.457-8.556-3.885-11.784-7.285-3.229-3.4-4.843-7.853-4.843-13.357 0-6.584 2.61-12.089 7.83-16.514 5.219-4.425 11.81-6.638 19.773-6.638 6.565 0 12.322 1.484 17.273 4.452 4.95 2.968 8.609 6.989 10.976 12.062l-8.878 5.18c-3.12-7.555-9.578-11.332-19.37-11.332-4.628 0-8.61 1.106-11.946 3.319-3.336 2.212-5.004 5.37-5.004 9.47Zm74.177-39.992c-1.467 1.516-3.25 2.275-5.345 2.275-2.097 0-3.879-.759-5.346-2.275s-2.201-3.358-2.201-5.524c0-2.167.734-4.008 2.201-5.524 1.467-1.517 3.25-2.275 5.346-2.275s3.878.758 5.345 2.275c1.467 1.516 2.201 3.357 2.201 5.524 0 2.166-.734 4.008-2.201 5.524Zm-10.534 99.792V42.877h10.377v81.238H614.42Zm101.241-10.258c-8.178 8.095-18.185 12.143-30.02 12.143-11.837 0-21.87-4.075-30.102-12.224-8.232-8.149-12.348-18.213-12.348-30.194 0-11.98 4.116-22.046 12.348-30.195 8.231-8.149 18.265-12.223 30.101-12.223 11.836 0 21.87 4.074 30.102 12.223 8.231 8.15 12.347 18.214 12.347 30.195 0 11.98-4.142 22.072-12.428 30.275Zm-52.617-7.447c6.133 6.152 13.665 9.228 22.596 9.228 8.931 0 16.463-3.103 22.597-9.309 6.133-6.206 9.2-13.789 9.2-22.747 0-8.959-3.067-16.54-9.2-22.747-6.134-6.206-13.666-9.31-22.597-9.31-8.93 0-16.463 3.104-22.596 9.31-6.133 6.206-9.2 13.788-9.2 22.747 0 8.958 3.067 16.568 9.2 22.828ZM784 41.164c9.849 0 17.614 2.997 23.295 8.992 5.682 5.994 8.523 14.068 8.523 24.22v49.739h-10.714V74.377c0-7.237-1.921-12.853-5.763-16.85-3.842-3.996-9.28-5.994-16.315-5.994-7.792 0-14.123 2.457-18.993 7.371-4.87 4.915-7.306 12.502-7.306 22.763v42.448h-10.714V43.108h10.714v12.637c6.061-9.72 15.152-14.581 27.273-14.581Z"/></svg>