<svg xmlns="http://www.w3.org/2000/svg" width="60" height="53" fill="currentColor"><path d="M25 29.975h-2.5a1.25 1.25 0 0 0 0 2.5H25a1.25 1.25 0 0 0 0-2.5Zm-.837 5H21.25a1.25 1.25 0 0 0 0 2.5h2.913a1.25 1.25 0 0 0 0-2.5Zm4.587-2.5h2.5a1.25 1.25 0 0 0 0-2.5h-2.5a1.25 1.25 0 0 0 0 2.5Zm6.25-5h1.25a1.25 1.25 0 0 0 0-2.5H35a1.25 1.25 0 0 0 0 2.5Zm-5.625 0h1.25a1.25 1.25 0 0 0 0-2.5h-1.25a1.25 1.25 0 0 0 0 2.5Zm29.54-15.945C51.068 4.095 40.8 0 30 0S8.933 4.095 1.06 11.553A3.625 3.625 0 0 0 0 14.136c0 .99.395 1.933 1.06 2.563l5.943 5.94c1.367 1.367 3.847 1.325 5.11.058a26.32 26.32 0 0 1 6.07-4.226c1.34-.65 1.817-2.232 1.817-3.497V8.41c3.19-.857 6.813-.935 10-.935 3.377 0 6.91.078 10 .928v6.572c0 1.66.67 2.978 1.78 3.518a25.748 25.748 0 0 1 6.095 4.22 3.738 3.738 0 0 0 2.538 1.012c.982 0 1.9-.378 2.585-1.06l5.942-5.942A3.635 3.635 0 0 0 60 14.137c0-.98-.375-1.898-1.085-2.608Zm-1.742 3.423-5.943 5.942c-.412.413-1.177.435-1.64-.005a28.352 28.352 0 0 0-6.705-4.643c-.155-.075-.385-.532-.385-1.272v-7.5a1.25 1.25 0 0 0-.855-1.185C38.007 5.078 33.897 4.975 30 4.975c-3.672 0-7.903.103-11.635 1.313a1.251 1.251 0 0 0-.865 1.187v7.5c0 .688-.238 1.167-.42 1.255-2.39 1.195-4.63 2.753-6.697 4.668-.393.392-1.185.397-1.61-.026l-5.968-5.965c-.195-.182-.305-.462-.305-.77 0-.314.117-.605.305-.792C10.185 6.35 19.843 2.5 30 2.5s19.815 3.85 27.17 10.817c.212.215.33.506.33.82 0 .316-.118.605-.328.816ZM53.35 35.236l-13.68-14.86a1.258 1.258 0 0 0-.92-.402H37.5v-3.75a1.25 1.25 0 0 0-2.5 0v3.75H25v-3.75a1.25 1.25 0 0 0-2.5 0v3.75h-1.25c-.35 0-.682.147-.917.405L6.653 35.24c-.08.085-.148.182-.2.288A13.807 13.807 0 0 0 5 41.675v9.55c0 .69.56 1.25 1.25 1.25h47.5c.69 0 1.25-.558 1.252-1.253v-9.55c0-2.122-.502-4.247-1.452-6.147a1.26 1.26 0 0 0-.2-.288Zm-.85 14.738h-45v-8.297c0-1.68.385-3.363 1.113-4.88l13.184-14.323h16.405l13.186 14.322a11.323 11.323 0 0 1 1.112 4.878v8.3Zm-13.75-15h-2.852a1.25 1.25 0 0 0 0 2.5h2.852a1.25 1.25 0 0 0 0-2.5Zm-7.22 0h-3.117a1.25 1.25 0 0 0 0 2.5h3.117a1.25 1.25 0 0 0 0-2.5Zm-6.53-10h-1.25a1.25 1.25 0 0 0 0 2.5H25a1.25 1.25 0 0 0 0-2.5Zm12.5 7.5a1.25 1.25 0 0 0 0-2.5H35a1.25 1.25 0 0 0 0 2.5h2.5Z"/></svg>