<svg xmlns="http://www.w3.org/2000/svg" width="60" height="60" fill="currentColor"><path d="M30 0c8.013 0 15.547 3.12 21.213 8.787C56.88 14.453 60 21.987 60 30c0 8.013-3.12 15.547-8.787 21.213C45.547 56.88 38.013 60 30 60c-8.013 0-15.547-3.12-21.213-8.787C3.12 45.547 0 38.013 0 30c0-8.013 3.12-15.547 8.787-21.213C14.453 3.12 21.987 0 30 0Zm0 1.944c-7.494 0-14.54 2.918-19.839 8.217C4.862 15.461 1.944 22.506 1.944 30c0 7.494 2.918 14.54 8.217 19.839 5.3 5.299 12.345 8.217 19.839 8.217 7.494 0 14.54-2.918 19.839-8.217 5.299-5.3 8.217-12.345 8.217-19.839 0-7.494-2.918-14.54-8.217-19.839C44.539 4.862 37.494 1.944 30 1.944Zm0 3.24c13.684 0 24.816 11.132 24.816 24.816S43.684 54.816 30 54.816 5.184 43.684 5.184 30 16.316 5.184 30 5.184Zm.972 1.965v3.153a.972.972 0 1 1-1.944 0V7.15a22.712 22.712 0 0 0-9.61 2.579l.538.932a.972.972 0 1 1-1.683.972l-.537-.93a23.056 23.056 0 0 0-7.034 7.034l.93.537a.972.972 0 0 1-.972 1.683l-.932-.538a22.712 22.712 0 0 0-2.579 9.61h3.153a.972.972 0 1 1 0 1.944H7.15a22.712 22.712 0 0 0 2.579 9.61l.932-.538a.972.972 0 0 1 .972 1.683l-.93.537a23.054 23.054 0 0 0 7.034 7.034l.537-.93a.972.972 0 1 1 1.683.972l-.538.932a22.711 22.711 0 0 0 9.61 2.579v-3.153a.972.972 0 1 1 1.944 0v3.153a22.713 22.713 0 0 0 9.61-2.579l-.538-.932a.972.972 0 0 1 1.683-.972l.537.93a23.052 23.052 0 0 0 7.034-7.034l-.93-.537a.972.972 0 0 1 .972-1.683l.932.538a22.712 22.712 0 0 0 2.579-9.61h-3.153a.972.972 0 1 1 0-1.944h3.153a22.712 22.712 0 0 0-2.579-9.61l-.932.538a.971.971 0 1 1-.972-1.683l.93-.537a23.056 23.056 0 0 0-7.034-7.034l-.537.93a.971.971 0 1 1-1.683-.972l.538-.932a22.711 22.711 0 0 0-9.61-2.579Zm-10.99 12.833a.972.972 0 0 1 1.375 0l6.528 6.528c.35-.213.735-.374 1.143-.474v-3.293a.972.972 0 1 1 1.944 0v3.293A4.089 4.089 0 0 1 34.082 30a4.05 4.05 0 0 1-.592 2.115l1.344 1.345a.972.972 0 0 1-1.374 1.374l-1.345-1.344c-.35.213-.735.374-1.143.474v11.587a.972.972 0 1 1-1.944 0V33.964A4.089 4.089 0 0 1 25.918 30c0-.774.216-1.498.592-2.116l-6.528-6.527a.972.972 0 0 1 0-1.375ZM30 27.862A2.14 2.14 0 0 0 27.862 30 2.14 2.14 0 0 0 30 32.138 2.14 2.14 0 0 0 32.138 30 2.14 2.14 0 0 0 30 27.862Z"/></svg>