<svg xmlns="http://www.w3.org/2000/svg" width="60" height="58" fill="currentColor"><path d="M16.128 24.005a1.09 1.09 0 1 1 0 2.18H6.185L2.473 55.632h55.098L54.41 26.186h-9.927a1.09 1.09 0 1 1 0-2.181H56.37L60 57.812H0l4.26-33.807Zm-6.012 26.84c.15-.583.747-.938 1.328-.782.143.036.287.063.432.082.44.053.886.04 1.325-.017a1.09 1.09 0 1 1 .273 2.164 8.087 8.087 0 0 1-1.024.067c-.28 0-.56-.017-.839-.05a5.247 5.247 0 0 1-.712-.136 1.089 1.089 0 0 1-.783-1.327Zm8.947-2.683a1.087 1.087 0 0 1 1.45.525 1.09 1.09 0 0 1-.523 1.451c-.685.32-1.383.62-2.075.887a1.091 1.091 0 0 1-.786-2.035c.644-.25 1.295-.528 1.934-.828ZM7.558 45.67c.157-.584.76-.93 1.337-.768.581.157.926.756.767 1.337a5.08 5.08 0 0 0-.157 1.766 1.093 1.093 0 0 1-1.087 1.202 1.09 1.09 0 0 1-1.084-.98 6.732 6.732 0 0 1-.022-1.024c.026-.51.108-1.027.246-1.533Zm16.907-.766a1.095 1.095 0 0 1 1.528.214 1.093 1.093 0 0 1-.214 1.528c-.601.454-1.224.89-1.849 1.296a1.09 1.09 0 0 1-1.509-.321 1.091 1.091 0 0 1 .32-1.51 29.139 29.139 0 0 0 1.724-1.207ZM30.269 0c7.49 0 11.945 3.79 12.883 10.961.31 2.36.185 4.9-.373 7.545-2.753 13.045-9.401 20.876-11.374 22.965-.009.01-.02.017-.028.025a1.083 1.083 0 0 1-.506 1.386 11.636 11.636 0 0 0-1.704 1.046 1.097 1.097 0 0 1-1.524-.24 1.091 1.091 0 0 1 .24-1.523c.228-.165.46-.326.699-.481.152-.1.327-.184.487-.28-2.036-2.173-8.584-9.975-11.309-22.898-.558-2.645-.684-5.182-.374-7.545C18.326 3.791 22.78 0 30.269 0ZM12.397 41.006c.316-.036.646-.035.971.008a1.09 1.09 0 0 1 .938 1.224 1.083 1.083 0 0 1-1.223.938 1.769 1.769 0 0 0-.443-.002 2.69 2.69 0 0 0-.996.315 1.09 1.09 0 0 1-1.04-1.916 4.848 4.848 0 0 1 1.793-.567Zm24.12-1.933a1.076 1.076 0 0 1 1.217.948 1.089 1.089 0 0 1-.948 1.216 25.35 25.35 0 0 0-2.057.341 1.09 1.09 0 1 1-.456-2.133c.7-.15 1.456-.275 2.245-.372Zm6.614-.413c.59-.055 1.112.437 1.14 1.04a1.09 1.09 0 0 1-1.04 1.139l-2.184.09a1.09 1.09 0 1 1-.09-2.179Zm5.64-.946c.476-.372 1.201-.312 1.569.163.37.476.323 1.133-.153 1.502-.06.046-.12.091-.184.134-.594.418-1.34.72-2.26.91a1.091 1.091 0 0 1-.442-2.136c.63-.13 1.097-.312 1.47-.573Zm2.757-5.914a1.092 1.092 0 0 1 1.402.643 4.345 4.345 0 0 1 .27 1.789 4.622 4.622 0 0 1-.2 1.051 1.09 1.09 0 0 1-2.083-.645 2.41 2.41 0 0 0 .105-.553l.005-.127c0-.248-.048-.504-.142-.757a1.09 1.09 0 0 1 .643-1.401Zm-5.384-2.368a6.454 6.454 0 0 1 2.602-.196c.597.08 1.016.63.935 1.228a1.083 1.083 0 0 1-1.227.935 4.29 4.29 0 0 0-1.718.132 1.09 1.09 0 0 1-.592-2.098ZM30.27 4.614c-4.418 0-8.012 3.594-8.012 8.012 0 4.417 3.594 8.01 8.012 8.01 4.418 0 8.011-3.593 8.011-8.01 0-4.418-3.593-8.012-8.011-8.012Z"/></svg>